<svg width="72" height="59" viewBox="0 0 72 59" fill="#9e62c7" xmlns="http://www.w3.org/2000/svg" 
class="whale"><path d="M78.4355 33.2254C71.5061 31.9032 65.6904 30.5755 61.2122 29.4638C56.3138 28.2599 54.436 27.6677 
52.2794 26.1516C48.9728 23.8287 48.8123 21.7761 45.1947 19.9938C42.0686 18.4503 40.8035 19.0221 37.7031 17.7374C33.1703 
15.8582 32.1474 13.0633 28.5231 9.9446C26.0008 7.78321 21.8926 5.14803 15.1681 3.80441C16.6888 5.59849 18.945 8.31873 21.5736 
11.7001C27.4742 19.3254 26.5997 19.1927 29.1863 21.9686C35.655 28.9354 41.4153 30.1099 41.8072 34.427C41.916 35.6087 41.6802 
37.7358 42.7578 40.3961C43.1621 41.397 43.8261 42.6603 43.5529 42.8501C43.3159 43.0154 42.5121 42.2576 42.4314 42.1987C39.9908 
39.9005 42.4877 35.5531 40.3621 31.9314C40.2305 31.708 38.6303 30.4962 35.4254 28.0838C31.1111 24.8289 30.5484 24.4436 29.5319 
23.4688C28.4327 22.408 27.3891 21.0168 25.3265 18.2706C22.6628 14.7181 21.8687 13.3889 19.6566 10.3989C18.5439 8.88814 16.8968 
6.72895 14.7613 4.16231C14.0971 3.38275 13.2056 2.61553 12.2108 2.68246C9.73518 2.85433 8.13057 8.25692 7.6866 11.0579C6.88689 
16.1204 8.70754 20.429 17.3687 34.2351C24.1798 45.0935 27.6525 50.5827 30.9313 53.5219C35.1103 57.2711 42.1358 63.5748 50.1806 
63.663C61.5707 63.7885 73.3662 51.4476 78.4355 33.2254Z" fill="currentColor"></path><path d="M15.7747 14.1318C15.1065 12.8145 
14.5432 11.6575 14.1069 10.7351C15.0107 11.3112 15.8005 12.1678 16.3777 12.8075C19.7829 16.5302 18.1677 19.1565 21.3576 21.8635C22.3544 
22.7258 23.6647 23.4276 24.4004 25.1907C24.8427 26.2594 24.8159 27.0984 24.8781 27.6859C25.0681 29.6982 26.4387 31.379 30.1822 
34.4938C37.3378 40.4449 38.1701 39.1353 40.6103 42.4009C41.5623 43.6634 42.7112 45.5681 45.206 47.3784C46.5711 48.364 47.5299 48.7401 
48.1042 49.0647C49.0531 49.5937 49.9794 50.5974 50.7099 52.5022L50.4966 52.4156C46.7357 50.9543 43.9045 49.3606 41.9715 48.1313C28.8144 
39.7963 22.025 26.4362 15.7747 14.1318Z" fill="#9e62c7"></path><path d="M15.2114 16.937C13.7588 14.1376 12.6325 11.7583 11.8849 
10.1211C12.45 10.0498 12.9916 10.165 13.5168 10.4174C14.4423 12.4537 15.7444 15.2051 17.4181 18.3296C23.3591 29.5278 29.4695 41.0171 
41.4668 48.6983C43.5882 50.0432 46.693 51.8003 50.8405 53.3401C50.8967 53.3628 50.9528 53.3856 51.0135 53.3972C51.2523 54.2263 51.4588 
55.1993 51.6082 56.3452C47.2786 54.7708 44.0616 52.9681 41.9222 51.6028C29.1307 43.4947 22.4787 30.9879 15.2114 16.937Z" fill="#9e62c7">
</path><path d="M13.6435 18.2225C12.1396 15.3239 10.9575 12.8566 10.1654 11.1359C10.5367 10.6721 11.0042 10.3258 11.5538 10.1958C12.7479 
12.9557 14.5102 16.796 16.8836 21.2245C23.4959 33.5713 29.5771 44.6172 41.413 52.1805C43.6846 53.6387 47.1237 55.5708 51.7164 
57.1735C51.7892 57.8961 51.8505 58.6793 51.8844 59.5299C47.2829 57.8844 43.8617 55.9727 41.6192 54.5394C28.2155 46.0389 21.2515 
32.9479 13.6435 18.2225Z" fill="#9e62c7"></path><path d="M12.0479 20.5428C10.6598 17.8743 9.54899 15.5536 8.75226 13.8442C8.74104 
13.8396 8.74559 13.8284 8.74559 13.8284C9.03089 13.0289 9.4021 12.1466 9.91858 11.4541C11.1751 14.3177 12.9911 18.2191 15.3913 
22.7107C22.311 35.653 28.6821 47.2089 41.074 55.1417C43.4712 56.677 47.0742 58.6887 51.9138 60.3917C51.9365 61.2377 51.9385 62.1669 
51.9178 63.1522C46.8803 61.4212 43.1809 59.3573 40.7612 57.8129C27.0144 49.0947 19.8542 35.6495 12.0479 20.5428Z" fill="#9e62c7"></path>
<path d="M50.8757 63.6573C50.6484 63.6697 50.4099 63.6774 50.1759 63.674C42.1357 63.5746 35.1102 57.2709 30.9266 53.5329C27.6524 50.5825 24.1797 45.0933 17.3686 34.2349C11.7247 25.2362 8.98273 20.266 7.98724 16.5015C8.09793 15.9711 8.23563 15.4386 8.40034 14.904C8.45746 14.731 8.50792 14.5423 8.57416 14.3469C9.84649 17.2039 11.5937 20.9204 13.8422 25.1413C20.9514 38.422 27.4829 50.2914 40.2113 58.4262C42.5973 59.957 46.1441 61.9459 50.8757 63.6573Z" fill="#9e62c7"></path><path d="M47.9701 44.0152C46.5107 44.325 45.4326 42.6322 45.1782 42.2281C44.6648 41.4314 44.0586 39.8647 44.7144 39.2156C45.0829 38.8552 45.7059 38.8989 46.2654 39.0345C46.753 39.1539 47.2041 39.3632 47.4174 39.4498C47.6935 39.5749 48.0594 39.7365 48.4183 39.9476C49.0575 40.3378 49.6733 40.9147 49.7005 41.7495C49.7517 42.7509 48.9634 43.7908 47.9701 44.0152Z" fill="#9e62c7"></path><path d="M48.3707 40.4517C48.1475 41.0018 47.4151 41.2275 46.7416 40.9541C46.068 40.6807 45.689 40.0039 45.9123 39.4538C45.9852 39.2742 46.1051 39.1398 46.2654 39.0349C46.753 39.1544 47.2041 39.3636 47.4174 39.4502C47.6935 39.5754 48.0594 39.737 48.4183 39.948C48.4534 40.1192 48.4345 40.2946 48.3707 40.4517Z" fill="currentColor"></path><path d="M29.0316 17.9049C28.7201 18.0923 28.2308 17.8805 27.9708 17.6835C27.8789 17.62 27.4733 17.2985 27.5023 16.9049C27.5456 16.3472 28.448 15.8636 28.9416 16.1293C29.5026 16.4224 29.5099 17.6283 29.027 17.9161L29.0316 17.9049Z" fill="#9e62c7"></path><path d="M24.5846 13.3013C24.4934 13.5259 24.2381 13.736 24.0157 13.6719C23.7821 13.6032 23.7097 13.2339 23.7718 12.9845C23.8383 12.7238 24.0736 12.4663 24.2939 12.5034C24.5367 12.5497 24.7234 12.9916 24.5958 13.3059L24.5846 13.3013Z" fill="#9e62c7"></path><path d="M29.6415 29.8025C29.4511 30.0782 29.0772 30.1618 28.7945 30.0209C28.4265 29.8323 28.3235 29.2806 28.5928 28.9715C28.8576 28.6736 29.3749 28.6875 29.6321 28.988C29.8132 29.2184 29.8182 29.5604 29.6415 29.8025Z" fill="#9e62c7"></path><path d="M17.27 11.6396C17.0802 11.7849 16.7537 11.8485 16.5993 11.6812C16.4225 11.5048 16.5413 11.1477 16.7222 10.9596C16.9077 10.7603 17.2413 10.6473 17.416 10.7967C17.6132 10.9552 17.5523 11.4273 17.2812 11.6442L17.27 11.6396Z" fill="#9e62c7"></path><path d="M40.4061 26.7976C40.2157 27.0734 39.726 26.9269 39.5576 26.8585C39.4454 26.813 39.3983 26.7677 39.3671 26.7158C39.2489 26.524 39.3873 26.2795 39.3919 26.2682C39.5167 26.0574 39.8236 25.8812 40.1042 25.9952C40.4298 26.1273 40.5513 26.5689 40.4061 26.7976Z" fill="#9e62c7"></path><path d="M20.7602 14.5737C20.5698 14.8495 20.0801 14.703 19.9117 14.6347C19.7994 14.5891 19.7524 14.5439 19.7212 14.492C19.6029 14.3001 19.7414 14.0556 19.746 14.0444C19.8708 13.8335 20.1776 13.6574 20.4583 13.7713C20.7838 13.9034 20.9053 14.345 20.7602 14.5737Z" fill="#9e62c7"></path><path d="M43.4288 30.9799C43.4124 31.1171 43.4026 31.27 43.283 31.3392C43.0505 31.4932 42.5229 31.279 42.3898 30.8981C42.3811 30.8554 42.2989 30.639 42.4146 30.4506C42.5394 30.2397 42.8463 30.0635 43.1269 30.1775C43.4974 30.3278 43.4316 30.8765 43.4288 30.9799Z" fill="#9e62c7"></path><path d="M21.8232 19.6856C21.7394 19.7954 21.6398 19.9119 21.4981 19.9067C21.2213 19.912 20.9065 19.4312 21.0008 19.038C21.019 18.9931 21.0674 18.7774 21.2771 18.6794C21.4959 18.5591 21.8467 18.5969 22.0299 18.8543C22.2509 19.1794 21.8933 19.6095 21.8232 19.6856Z" fill="#9e62c7"></path><path d="M32.7422 32.3427C32.9418 32.463 33.1639 32.5924 33.2099 32.8333C33.2953 33.2995 32.554 33.9661 31.8749 33.8997C31.7984 33.8948 31.4252 33.8479 31.1883 33.5295C30.9381 33.1795 30.9074 32.5786 31.2872 32.2228C31.7778 31.7551 32.6054 32.2611 32.7422 32.3427Z" fill="#9e62c7"></path><path d="M33.2237 28.3537C33.2237 28.3537 34.0593 28.6144 34.0629 29.2174C34.0613 29.5436 33.8348 29.8439 33.5619 29.9685C33.3522 30.0664 33.1701 30.0317 32.9723 30.0037C32.6755 29.9617 32.2304 29.8987 32.0275 29.5287C31.8693 29.2422 31.8961 28.8216 32.1248 28.5483C32.4891 28.134 33.1181 28.3239 33.2237 28.3537Z" fill="#9e62c7"></path><path d="M33.4937 19.9255C33.4251 20.1592 32.7516 20.3042 32.4674 20.0058C32.3488 19.8792 32.2825 19.6561 32.3687 19.5081C32.4935 19.2972 32.8825 19.3375 33.1204 19.4602C33.3179 19.5534 33.5418 19.775 33.4892 19.9368L33.4937 19.9255Z" fill="#9e62c7"></path>
<path d="M25.1056 21.0053C25.2712 21.1771 25.0676 21.8397 24.6509 21.9321C24.4797 21.9672 24.2528 21.9143 24.1703 21.7632C24.0611 21.5489 
24.281 21.2328 24.4977 21.0854C24.6783 20.9626 24.987 20.8787 25.0943 21.0007L25.1056 21.0053Z" fill="#9e62c7"></path>
<path d="M14.5142 7.6056C14.6753 7.78865 14.5779 8.3506 14.238 8.38262C14.103 8.39318 13.8964 8.32239 13.7981 8.1779C13.6732 7.97028 13.8275 7.71909 13.9989 7.61872C14.1389 7.53169 14.3911 7.49023 14.5097 7.61682L14.5142 7.6056Z" fill="#9e62c7"></path><path d="M28.2749 25.1157C28.2062 25.3493 27.5328 25.4944 27.2486 25.196C27.13 25.0694 27.0636 24.8463 27.1499 24.6983C27.2747 24.4874 27.6637 24.5277 27.9015 24.6504C28.099 24.7436 28.3229 24.9652 28.2703 25.1269L28.2749 25.1157Z" fill="#9e62c7"></path><path d="M36.2877 24.8643C35.788 25.3544 34.8262 25.1471 34.4107 24.56C34.1293 24.1581 34.0583 23.5278 34.3616 23.1671C34.8234 22.6093 36.0307 22.7594 36.4455 23.4769C36.6842 23.8876 36.663 24.5197 36.299 24.8688L36.2877 24.8643Z" fill="#9e62c7"></path><path d="M40.4265 18.856C40.4077 19.4498 39.8895 20.0501 39.4015 19.9959C38.9024 19.9371 38.6114 19.2045 38.6659 18.6513C38.7041 18.2353 38.9814 17.681 39.3956 17.6268C39.8909 17.5664 40.4477 18.2239 40.4265 18.856Z" fill="#9e62c7"></path><path d="M34.5882 16.1985C34.467 16.5938 34.0893 16.9766 33.707 16.9522C33.1492 16.9089 32.6814 15.9998 32.9815 15.3894C33.1452 15.0505 33.5695 14.7782 33.9516 14.8679C34.4707 14.974 34.7326 15.6818 34.5837 16.2097L34.5882 16.1985Z" fill="#9e62c7"></path><path d="M29.8539 11.0473C29.5707 11.8738 28.1674 12.2063 27.7422 11.7722C27.4401 11.4534 27.6106 10.6466 28.0651 10.2035C28.4337 9.84316 29.1414 9.58128 29.5761 9.92772C29.9056 10.1791 29.9727 10.6902 29.8539 11.0473Z" fill="#9e62c7"></path><path d="M8.99271 6.84183C8.43731 6.3418 8.50331 5.30948 8.99079 5.01049C9.3948 4.75607 9.95787 5.07616 10.0364 5.10805C10.5771 5.41903 11.0456 6.19759 10.7325 6.7112C10.4352 7.21814 9.5011 7.29663 8.99271 6.84183Z" fill="#9e62c7"></path><path d="M23.917 6.98988C23.847 7.48448 23.242 7.87961 22.8828 7.73379C22.5011 7.57886 22.5363 6.84786 22.5482 6.72193C22.5601 6.596 22.5922 6.03372 22.8717 5.9249C23.2256 5.79397 23.9943 6.38058 23.9057 6.98532L23.917 6.98988Z" fill="#9e62c7"></path>
<path d="M19.2977 5.32391C19.215 5.65646 18.8443 5.98979 18.4644 5.92712C17.9856 5.85043 17.8609 5.15911 17.8479 5.06231C17.8001 
4.72909 17.8522 4.21415 18.1272 4.11656C18.5172 3.96106 19.4381 4.68794 19.2977 5.32391Z" fill="#9e62c7"></path></svg>