<?xml version="1.0" encoding="UTF-8"?> <svg xmlns="http://www.w3.org/2000/svg" xmlns:xlink="http://www.w3.org/1999/xlink" width="44px" height="44px" viewBox="0 0 44 44"><!-- Generator: Sketch 55.2 (78181) - https://sketchapp.com --><title>user</title><desc>Created with Sketch.</desc><g id="Page-1" stroke="none" stroke-width="1" fill="none" fill-rule="evenodd"><g id="Achirvements" transform="translate(-989.000000, -531.000000)"><g id="features" transform="translate(265.000000, 471.000000)"><g id="3" transform="translate(619.481068, 1.000000)"><g id="Group-5" transform="translate(48.679870, 52.037102)"><g id="user" transform="translate(48.679870, 0.000000)"><polygon id="Shape" points="0 0 57.7443939 0 57.7443939 57.7443939 0 57.7443939"></polygon><path d="M28.872197,26.4661805 C23.5569723,26.4661805 19.2481313,22.1573396 19.2481313,16.8421149 C19.2481313,11.5268902 23.5569723,7.21804924 28.872197,7.21804924 C34.1874216,7.21804924 38.4962626,11.5268902 38.4962626,16.8421149 C38.4962626,22.1573396 34.1874216,26.4661805 28.872197,26.4661805 Z" id="Mask" fill="#643BDF" opacity="0.3"></path><path d="M7.21961719,48.59962 C8.15220561,37.1164504 17.4722803,31.2782134 28.8321158,31.2782134 C40.3518219,31.2782134 49.81629,36.7956731 50.5213264,48.6015315 C50.5494133,49.0718454 50.5213264,50.5263447 48.7138923,50.5263447 C39.7982158,50.5263447 26.5497287,50.5263447 8.96843154,50.5263447 C8.3650265,50.5263447 7.16881793,49.2251229 7.21961719,48.59962 Z" id="Mask-Copy" fill="#643BDF"></path></g></g></g></g></g></g></svg> 