<svg name="locked-lesson" width="15" height="15" viewBox="0 0 11 13" fill="none" class="dark:invert"><path d="M9.625 4.33197H8.9375V3.21769C8.9375 1.73197 7.8375 0.357686 6.215 0.0729242C4.00125 -0.335647 2.0625 1.17483 2.0625 3.09388V4.33197H1.375C0.61875 4.33197 0 4.88911 0 5.57007V11.7605C0 12.4415 0.61875 12.9986 1.375 12.9986H9.625C10.3813 12.9986 11 12.4415 11 11.7605V5.57007C11 4.88911 10.3813 4.33197 9.625 4.33197Z" fill="#000000"></path><path d="M5.12875 1.20093C4.125 1.37427 3.4375 2.24093 3.4375 3.15712V4.33331H7.5625V3.09522C7.5625 1.91903 6.435 0.990458 5.12875 1.20093Z" fill="#FAFAFA"></path><path d="M5.375 9.47619C6.13439 9.47619 6.75 8.92188 6.75 8.2381C6.75 7.55431 6.13439 7 5.375 7C4.61561 7 4 7.55431 4 8.2381C4 8.92188 4.61561 9.47619 5.375 9.47619Z" fill="#FAFAFA"></path></svg>