<svg xmlns="http://www.w3.org/2000/svg" width="20" height="20" viewBox="0 0 20 20" fill="none" stroke="currentColor" stroke-width="1.5" stroke-linecap="round" stroke-linejoin="round" class="acorn-icons acorn-icons-burger acorn-icons acorn-icons-burger acorn-icons acorn-icons-loaf acorn-icons acorn-icons-loaf acorn-icons acorn-icons-burger acorn-icons acorn-icons-cupcake acorn-icons acorn-icons-cupcake acorn-icons acorn-icons-loaf acorn-icons acorn-icons-burger acorn-icons acorn-icons-burger acorn-icons acorn-icons-burger icon" style="color: rgb(77, 30, 179);"><path d="M3 6.75C3 6.05302 3 5.70453 3.05764 5.41473 3.29436 4.22466 4.22466 3.29436 5.41473 3.05764 5.70453 3 6.05302 3 6.75 3H13.25C13.947 3 14.2955 3 14.5853 3.05764 15.7753 3.29436 16.7056 4.22466 16.9424 5.41473 17 5.70453 17 6.05302 17 6.75V6.75C17 6.98233 17 7.09849 16.9808 7.19509 16.9019 7.59178 16.5918 7.90188 16.1951 7.98079 16.0985 8 15.9823 8 15.75 8H4.25C4.01767 8 3.90151 8 3.80491 7.98079 3.40822 7.90188 3.09812 7.59178 3.01921 7.19509 3 7.09849 3 6.98233 3 6.75V6.75zM17 13.25C17 13.947 17 14.2955 16.9424 14.5853 16.7056 15.7753 15.7753 16.7056 14.5853 16.9424 14.2955 17 13.947 17 13.25 17H6.75C6.05302 17 5.70453 17 5.41473 16.9424 4.22466 16.7056 3.29436 15.7753 3.05764 14.5853 3 14.2955 3 13.947 3 13.25V13.25C3 13.0177 3 12.9015 3.01921 12.8049 3.09812 12.4082 3.40822 12.0981 3.80491 12.0192 3.90151 12 4.01767 12 4.25 12H15.75C15.9823 12 16.0985 12 16.1951 12.0192 16.5918 12.0981 16.9019 12.4082 16.9808 12.8049 17 12.9015 17 13.0177 17 13.25V13.25z"></path><path d="M6 5 6 3M14 5 14 3M10 4 10 3M10 8 10 7"></path><path d="M14.25 8H5.75C5.04777 8 4.69665 8 4.44443 8.16853C4.33524 8.24149 4.24149 8.33524 4.16853 8.44443C4 8.69665 4 9.04777 4 9.75V10.25C4 10.9522 4 11.3033 4.16853 11.5556C4.24149 11.6648 4.33524 11.7585 4.44443 11.8315C4.69665 12 5.04777 12 5.75 12H14.25C14.9522 12 15.3033 12 15.5556 11.8315C15.6648 11.7585 15.7585 11.6648 15.8315 11.5556C16 11.3033 16 10.9522 16 10.25V9.75C16 9.04777 16 8.69665 15.8315 8.44443C15.7585 8.33524 15.6648 8.24149 15.5556 8.16853C15.3033 8 14.9522 8 14.25 8Z"></path></svg>